# xmcd
#
# Track frame offsets:
# 150
# 21130
# 38065
# 50410
# 66217
# 85562
# 113670
# 134450
# 149452
# 163820
# 181462
# 201435
#
# Disc length: 2946 seconds
#
#
# Revision: 0
# Processed by: cddbd v1.5PL3 Copyright (c) Steve Scherf et al.
# Submitted via: FreeRIP 2.60 
#
DISCID=a80b800c
DTITLE=Gladys Knight and The Pips - Midnight Train
DYEAR=2004
DGENRE=R&B
TTITLE0=Midnight Train To Georgia
TTITLE1=Best Thing That Ever Happened To Me
TTITLE2=I Heard It Through The Grapevine
TTITLE3=I've Got To Use My Imagination
TTITLE4=On And On
TTITLE5=Feel Like Makin Love
TTITLE6=Make Yours A Happy Home
TTITLE7=I Feel A Song (In My Heart)
TTITLE8=If I Were Your Woman
TTITLE9=Love Finds Its Own Way
TTITLE10=Where Peaceful Waters Flow
TTITLE11=Neither One Of Us
EXTD=
EXTT0=
EXTT1=
EXTT2=
EXTT3=
EXTT4=
EXTT5=
EXTT6=
EXTT7=
EXTT8=
EXTT9=
EXTT10=
EXTT11=
PLAYORDER=
